<mxfile host="Electron" modified="2023-05-20T11:01:46.663Z" agent="Mozilla/5.0 (Windows NT 10.0; Win64; x64) AppleWebKit/537.36 (KHTML, like Gecko) draw.io/21.2.8 Chrome/112.0.5615.165 Electron/24.2.0 Safari/537.36" etag="Q9LEfcIHdnSW5zUvOE0q" version="21.2.8" type="device">
  <diagram id="C5RBs43oDa-KdzZeNtuy" name="Page-1">
    <mxGraphModel dx="4172" dy="1685" grid="1" gridSize="10" guides="1" tooltips="1" connect="1" arrows="1" fold="1" page="1" pageScale="1" pageWidth="827" pageHeight="1169" math="0" shadow="0">
      <root>
        <mxCell id="WIyWlLk6GJQsqaUBKTNV-0" />
        <mxCell id="WIyWlLk6GJQsqaUBKTNV-1" parent="WIyWlLk6GJQsqaUBKTNV-0" />
        <mxCell id="t22loXEwvGYVSL7xWseN-3" style="edgeStyle=orthogonalEdgeStyle;rounded=0;orthogonalLoop=1;jettySize=auto;html=1;" parent="WIyWlLk6GJQsqaUBKTNV-1" source="t22loXEwvGYVSL7xWseN-0" target="t22loXEwvGYVSL7xWseN-1" edge="1">
          <mxGeometry relative="1" as="geometry" />
        </mxCell>
        <UserObject label="&lt;div style=&quot;&quot;&gt;&lt;font style=&quot;direction: ltr; letter-spacing: 0px; line-height: 120%; opacity: 1; font-size: 11.29px;&quot;&gt;start&lt;/font&gt;&lt;/div&gt;" Function="EN_DIO_Error_T DIO_init(uint8_t pinNumber, EN_DIO_PORT_T portNumber, EN_DIO_DIRECTION_T direction);" tags="Flowchart" id="t22loXEwvGYVSL7xWseN-0">
          <mxCell style="verticalAlign=middle;align=center;overflow=width;vsdxID=30;fillColor=#dae8fc;shape=stencil(tVLREoIgEPwaHnEQxsl3s/9gEpSJwDko7e+DsEkze2l627vdu5uFRaxyHe8FosR5sCcxqMZ3iO0Rpcp0ApQPCLEasUpaEC3Yi2lS3fOojOhsr3HDmObyMtsVcYqS29Qh5FEfklwrM5OXeUa/yjkcAwfr7TDpiyTfXvjkMR+Vw2A998qaBac5tAKHU1hq3i4oNwjRr9ofvayt/+Rk+yX/4iWA159KpXWKxJx/z0Bopfyw+g4=);strokeColor=#6c8ebf;spacingTop=-1;spacingBottom=-1;spacingLeft=-1;spacingRight=-1;points=[[0.5,1,0],[0.5,0,0],[0,0.5,0],[1,0.5,0]];labelBackgroundColor=none;rounded=1;html=1;whiteSpace=wrap;fontFamily=Calibri;" parent="WIyWlLk6GJQsqaUBKTNV-1" vertex="1">
            <mxGeometry x="-3219.5" y="-1092" width="101" height="38" as="geometry" />
          </mxCell>
        </UserObject>
        <mxCell id="Sz5I-C2nNWflKFqn1XSB-1" style="edgeStyle=orthogonalEdgeStyle;rounded=0;orthogonalLoop=1;jettySize=auto;html=1;entryX=0.5;entryY=0;entryDx=0;entryDy=0;" edge="1" parent="WIyWlLk6GJQsqaUBKTNV-1" source="t22loXEwvGYVSL7xWseN-1" target="Sz5I-C2nNWflKFqn1XSB-0">
          <mxGeometry relative="1" as="geometry" />
        </mxCell>
        <mxCell id="t22loXEwvGYVSL7xWseN-1" value="&lt;font style=&quot;font-size: 11.29px;&quot;&gt;Display ( Set defalut rotation ) on L1&lt;br&gt;Diplay ( Right) on L2&lt;br&gt;&lt;/font&gt;" style="rounded=0;whiteSpace=wrap;html=1;fontSize=16;fillColor=#d5e8d4;strokeColor=#82b366;" parent="WIyWlLk6GJQsqaUBKTNV-1" vertex="1">
          <mxGeometry x="-3269" y="-982" width="200" height="46" as="geometry" />
        </mxCell>
        <mxCell id="t22loXEwvGYVSL7xWseN-12" value="&lt;font style=&quot;font-size: 11px;&quot;&gt;yes&lt;/font&gt;" style="edgeStyle=orthogonalEdgeStyle;rounded=0;orthogonalLoop=1;jettySize=auto;html=1;entryX=0.5;entryY=0;entryDx=0;entryDy=0;" parent="WIyWlLk6GJQsqaUBKTNV-1" source="t22loXEwvGYVSL7xWseN-4" target="t22loXEwvGYVSL7xWseN-11" edge="1">
          <mxGeometry relative="1" as="geometry" />
        </mxCell>
        <mxCell id="t22loXEwvGYVSL7xWseN-24" value="no" style="edgeStyle=orthogonalEdgeStyle;rounded=0;orthogonalLoop=1;jettySize=auto;html=1;" parent="WIyWlLk6GJQsqaUBKTNV-1" source="t22loXEwvGYVSL7xWseN-4" edge="1">
          <mxGeometry relative="1" as="geometry">
            <mxPoint x="-2770" y="-904" as="targetPoint" />
          </mxGeometry>
        </mxCell>
        <UserObject label="u8_g_timeOut&amp;nbsp;&lt;br&gt;equals zero" Function="EN_DIO_Error_T DIO_init(uint8_t pinNumber, EN_DIO_PORT_T portNumber, EN_DIO_DIRECTION_T direction);" tags="Flowchart" id="t22loXEwvGYVSL7xWseN-4">
          <mxCell style="vsdxID=219;fillColor=#fff2cc;shape=stencil(UzV2Ls5ILEhVNTIoLinKz04tz0wpyVA1dlE1MsrMy0gtyiwBslSNXVWNndPyi1LTi/JL81Ig/IJEkEoQKze/DGRCBUSfAUiHkUElhGcK4bpBVOZk5iGpNEVVikeloQHZpsK0YlWLz1QgA+HFtMycHEgIIcujBwlQCBKcxq4A);strokeColor=#d6b656;spacingTop=-1;spacingBottom=-1;spacingLeft=-1;spacingRight=-1;points=[[0,0.5,0],[1,0.5,0],[0.5,0,0],[0.5,1,0]];labelBackgroundColor=none;rounded=1;html=1;whiteSpace=wrap;fontFamily=Calibri;" parent="WIyWlLk6GJQsqaUBKTNV-1" vertex="1">
            <mxGeometry x="-3000" y="-952" width="135" height="95" as="geometry" />
          </mxCell>
        </UserObject>
        <mxCell id="t22loXEwvGYVSL7xWseN-7" value="notes&lt;br&gt;L is Line of Lcd&lt;br&gt;u8_g_timeOut is set when time finished" style="shape=note;whiteSpace=wrap;html=1;backgroundOutline=1;darkOpacity=0.05;fillColor=#e1d5e7;strokeColor=#9673a6;" parent="WIyWlLk6GJQsqaUBKTNV-1" vertex="1">
          <mxGeometry x="-3260" y="-801" width="120" height="170" as="geometry" />
        </mxCell>
        <mxCell id="Sz5I-C2nNWflKFqn1XSB-5" style="edgeStyle=orthogonalEdgeStyle;rounded=0;orthogonalLoop=1;jettySize=auto;html=1;" edge="1" parent="WIyWlLk6GJQsqaUBKTNV-1" source="t22loXEwvGYVSL7xWseN-11" target="Sz5I-C2nNWflKFqn1XSB-3">
          <mxGeometry relative="1" as="geometry" />
        </mxCell>
        <mxCell id="t22loXEwvGYVSL7xWseN-11" value="&lt;font style=&quot;font-size: 11.29px;&quot;&gt;Read Value of Button&lt;br&gt;&lt;/font&gt;" style="rounded=0;whiteSpace=wrap;html=1;fontSize=16;fillColor=#d5e8d4;strokeColor=#82b366;" parent="WIyWlLk6GJQsqaUBKTNV-1" vertex="1">
          <mxGeometry x="-3012.5" y="-792" width="160" height="46" as="geometry" />
        </mxCell>
        <mxCell id="t22loXEwvGYVSL7xWseN-32" value="&lt;font style=&quot;font-size: 12.5px;&quot;&gt;void setDefaultRotation ( void )&lt;/font&gt;" style="text;html=1;strokeColor=none;fillColor=none;align=center;verticalAlign=middle;whiteSpace=wrap;rounded=0;" parent="WIyWlLk6GJQsqaUBKTNV-1" vertex="1">
          <mxGeometry x="-2952.5" y="-1132" width="200" height="36" as="geometry" />
        </mxCell>
        <mxCell id="Sz5I-C2nNWflKFqn1XSB-2" style="edgeStyle=orthogonalEdgeStyle;rounded=0;orthogonalLoop=1;jettySize=auto;html=1;entryX=0;entryY=0.5;entryDx=0;entryDy=0;entryPerimeter=0;" edge="1" parent="WIyWlLk6GJQsqaUBKTNV-1" source="Sz5I-C2nNWflKFqn1XSB-0" target="t22loXEwvGYVSL7xWseN-4">
          <mxGeometry relative="1" as="geometry" />
        </mxCell>
        <mxCell id="Sz5I-C2nNWflKFqn1XSB-0" value="&lt;font style=&quot;font-size: 11.29px;&quot;&gt;Start Time out of 5 seconds&lt;br&gt;&lt;/font&gt;" style="rounded=0;whiteSpace=wrap;html=1;fontSize=16;fillColor=#d5e8d4;strokeColor=#82b366;" vertex="1" parent="WIyWlLk6GJQsqaUBKTNV-1">
          <mxGeometry x="-3269" y="-892" width="200" height="46" as="geometry" />
        </mxCell>
        <mxCell id="Sz5I-C2nNWflKFqn1XSB-8" value="yes" style="edgeStyle=orthogonalEdgeStyle;rounded=0;orthogonalLoop=1;jettySize=auto;html=1;entryX=0;entryY=0.5;entryDx=0;entryDy=0;entryPerimeter=0;" edge="1" parent="WIyWlLk6GJQsqaUBKTNV-1" source="Sz5I-C2nNWflKFqn1XSB-3" target="Sz5I-C2nNWflKFqn1XSB-7">
          <mxGeometry relative="1" as="geometry" />
        </mxCell>
        <mxCell id="Sz5I-C2nNWflKFqn1XSB-12" style="edgeStyle=orthogonalEdgeStyle;rounded=0;orthogonalLoop=1;jettySize=auto;html=1;exitX=0;exitY=0.5;exitDx=0;exitDy=0;exitPerimeter=0;" edge="1" parent="WIyWlLk6GJQsqaUBKTNV-1" source="Sz5I-C2nNWflKFqn1XSB-3">
          <mxGeometry relative="1" as="geometry">
            <mxPoint x="-3020" y="-900" as="targetPoint" />
            <Array as="points">
              <mxPoint x="-3020" y="-633" />
              <mxPoint x="-3020" y="-894" />
            </Array>
          </mxGeometry>
        </mxCell>
        <mxCell id="Sz5I-C2nNWflKFqn1XSB-13" value="no" style="edgeLabel;html=1;align=center;verticalAlign=middle;resizable=0;points=[];" vertex="1" connectable="0" parent="Sz5I-C2nNWflKFqn1XSB-12">
          <mxGeometry x="-0.4681" relative="1" as="geometry">
            <mxPoint as="offset" />
          </mxGeometry>
        </mxCell>
        <UserObject label="Button Pressed" Function="EN_DIO_Error_T DIO_init(uint8_t pinNumber, EN_DIO_PORT_T portNumber, EN_DIO_DIRECTION_T direction);" tags="Flowchart" id="Sz5I-C2nNWflKFqn1XSB-3">
          <mxCell style="vsdxID=219;fillColor=#fff2cc;shape=stencil(UzV2Ls5ILEhVNTIoLinKz04tz0wpyVA1dlE1MsrMy0gtyiwBslSNXVWNndPyi1LTi/JL81Ig/IJEkEoQKze/DGRCBUSfAUiHkUElhGcK4bpBVOZk5iGpNEVVikeloQHZpsK0YlWLz1QgA+HFtMycHEgIIcujBwlQCBKcxq4A);strokeColor=#d6b656;spacingTop=-1;spacingBottom=-1;spacingLeft=-1;spacingRight=-1;points=[[0,0.5,0],[1,0.5,0],[0.5,0,0],[0.5,1,0]];labelBackgroundColor=none;rounded=1;html=1;whiteSpace=wrap;fontFamily=Calibri;" vertex="1" parent="WIyWlLk6GJQsqaUBKTNV-1">
            <mxGeometry x="-3000" y="-681" width="135" height="95" as="geometry" />
          </mxCell>
        </UserObject>
        <mxCell id="Sz5I-C2nNWflKFqn1XSB-15" style="edgeStyle=orthogonalEdgeStyle;rounded=0;orthogonalLoop=1;jettySize=auto;html=1;entryX=1;entryY=0.5;entryDx=0;entryDy=0;" edge="1" parent="WIyWlLk6GJQsqaUBKTNV-1" source="Sz5I-C2nNWflKFqn1XSB-7" target="Sz5I-C2nNWflKFqn1XSB-9">
          <mxGeometry relative="1" as="geometry">
            <Array as="points">
              <mxPoint x="-2632" y="-633" />
              <mxPoint x="-2632" y="-769" />
            </Array>
          </mxGeometry>
        </mxCell>
        <mxCell id="Sz5I-C2nNWflKFqn1XSB-16" value="yes" style="edgeLabel;html=1;align=center;verticalAlign=middle;resizable=0;points=[];" vertex="1" connectable="0" parent="Sz5I-C2nNWflKFqn1XSB-15">
          <mxGeometry x="-0.1058" y="-1" relative="1" as="geometry">
            <mxPoint y="1" as="offset" />
          </mxGeometry>
        </mxCell>
        <mxCell id="Sz5I-C2nNWflKFqn1XSB-19" value="no" style="edgeStyle=orthogonalEdgeStyle;rounded=0;orthogonalLoop=1;jettySize=auto;html=1;entryX=0.5;entryY=0;entryDx=0;entryDy=0;entryPerimeter=0;" edge="1" parent="WIyWlLk6GJQsqaUBKTNV-1" source="Sz5I-C2nNWflKFqn1XSB-7" target="Sz5I-C2nNWflKFqn1XSB-18">
          <mxGeometry relative="1" as="geometry" />
        </mxCell>
        <UserObject label="Button Pressed" Function="EN_DIO_Error_T DIO_init(uint8_t pinNumber, EN_DIO_PORT_T portNumber, EN_DIO_DIRECTION_T direction);" tags="Flowchart" id="Sz5I-C2nNWflKFqn1XSB-7">
          <mxCell style="vsdxID=219;fillColor=#fff2cc;shape=stencil(UzV2Ls5ILEhVNTIoLinKz04tz0wpyVA1dlE1MsrMy0gtyiwBslSNXVWNndPyi1LTi/JL81Ig/IJEkEoQKze/DGRCBUSfAUiHkUElhGcK4bpBVOZk5iGpNEVVikeloQHZpsK0YlWLz1QgA+HFtMycHEgIIcujBwlQCBKcxq4A);strokeColor=#d6b656;spacingTop=-1;spacingBottom=-1;spacingLeft=-1;spacingRight=-1;points=[[0,0.5,0],[1,0.5,0],[0.5,0,0],[0.5,1,0]];labelBackgroundColor=none;rounded=1;html=1;whiteSpace=wrap;fontFamily=Calibri;" vertex="1" parent="WIyWlLk6GJQsqaUBKTNV-1">
            <mxGeometry x="-2800" y="-681" width="135" height="95" as="geometry" />
          </mxCell>
        </UserObject>
        <mxCell id="Sz5I-C2nNWflKFqn1XSB-17" style="edgeStyle=orthogonalEdgeStyle;rounded=0;orthogonalLoop=1;jettySize=auto;html=1;entryX=0.5;entryY=0;entryDx=0;entryDy=0;entryPerimeter=0;" edge="1" parent="WIyWlLk6GJQsqaUBKTNV-1" source="Sz5I-C2nNWflKFqn1XSB-9" target="Sz5I-C2nNWflKFqn1XSB-7">
          <mxGeometry relative="1" as="geometry" />
        </mxCell>
        <mxCell id="Sz5I-C2nNWflKFqn1XSB-9" value="&lt;font style=&quot;font-size: 11.29px;&quot;&gt;Read Value of Button&lt;br&gt;&lt;/font&gt;" style="rounded=0;whiteSpace=wrap;html=1;fontSize=16;fillColor=#d5e8d4;strokeColor=#82b366;" vertex="1" parent="WIyWlLk6GJQsqaUBKTNV-1">
          <mxGeometry x="-2812.5" y="-792" width="160" height="46" as="geometry" />
        </mxCell>
        <mxCell id="Sz5I-C2nNWflKFqn1XSB-23" value="yes" style="edgeStyle=orthogonalEdgeStyle;rounded=0;orthogonalLoop=1;jettySize=auto;html=1;" edge="1" parent="WIyWlLk6GJQsqaUBKTNV-1" source="Sz5I-C2nNWflKFqn1XSB-18" target="Sz5I-C2nNWflKFqn1XSB-21">
          <mxGeometry relative="1" as="geometry" />
        </mxCell>
        <mxCell id="Sz5I-C2nNWflKFqn1XSB-28" style="edgeStyle=orthogonalEdgeStyle;rounded=0;orthogonalLoop=1;jettySize=auto;html=1;exitX=0.5;exitY=1;exitDx=0;exitDy=0;exitPerimeter=0;entryX=1;entryY=0.5;entryDx=0;entryDy=0;" edge="1" parent="WIyWlLk6GJQsqaUBKTNV-1" source="Sz5I-C2nNWflKFqn1XSB-18" target="Sz5I-C2nNWflKFqn1XSB-27">
          <mxGeometry relative="1" as="geometry" />
        </mxCell>
        <mxCell id="Sz5I-C2nNWflKFqn1XSB-29" value="no" style="edgeLabel;html=1;align=center;verticalAlign=middle;resizable=0;points=[];" vertex="1" connectable="0" parent="Sz5I-C2nNWflKFqn1XSB-28">
          <mxGeometry x="0.0822" y="1" relative="1" as="geometry">
            <mxPoint x="1" as="offset" />
          </mxGeometry>
        </mxCell>
        <UserObject label="rotation&amp;nbsp;&lt;br&gt;equals Right" Function="EN_DIO_Error_T DIO_init(uint8_t pinNumber, EN_DIO_PORT_T portNumber, EN_DIO_DIRECTION_T direction);" tags="Flowchart" id="Sz5I-C2nNWflKFqn1XSB-18">
          <mxCell style="vsdxID=219;fillColor=#fff2cc;shape=stencil(UzV2Ls5ILEhVNTIoLinKz04tz0wpyVA1dlE1MsrMy0gtyiwBslSNXVWNndPyi1LTi/JL81Ig/IJEkEoQKze/DGRCBUSfAUiHkUElhGcK4bpBVOZk5iGpNEVVikeloQHZpsK0YlWLz1QgA+HFtMycHEgIIcujBwlQCBKcxq4A);strokeColor=#d6b656;spacingTop=-1;spacingBottom=-1;spacingLeft=-1;spacingRight=-1;points=[[0,0.5,0],[1,0.5,0],[0.5,0,0],[0.5,1,0]];labelBackgroundColor=none;rounded=1;html=1;whiteSpace=wrap;fontFamily=Calibri;" vertex="1" parent="WIyWlLk6GJQsqaUBKTNV-1">
            <mxGeometry x="-2920" y="-491" width="135" height="95" as="geometry" />
          </mxCell>
        </UserObject>
        <mxCell id="Sz5I-C2nNWflKFqn1XSB-25" style="edgeStyle=orthogonalEdgeStyle;rounded=0;orthogonalLoop=1;jettySize=auto;html=1;" edge="1" parent="WIyWlLk6GJQsqaUBKTNV-1" source="Sz5I-C2nNWflKFqn1XSB-21">
          <mxGeometry relative="1" as="geometry">
            <mxPoint x="-3020" y="-820" as="targetPoint" />
            <Array as="points">
              <mxPoint x="-3060" y="-820" />
            </Array>
          </mxGeometry>
        </mxCell>
        <mxCell id="Sz5I-C2nNWflKFqn1XSB-21" value="&lt;font style=&quot;font-size: 11.29px;&quot;&gt;rotation equals left&lt;br&gt;Display Left on L2&lt;br&gt;&lt;/font&gt;" style="rounded=0;whiteSpace=wrap;html=1;fontSize=16;fillColor=#d5e8d4;strokeColor=#82b366;" vertex="1" parent="WIyWlLk6GJQsqaUBKTNV-1">
          <mxGeometry x="-3140" y="-466.5" width="160" height="46" as="geometry" />
        </mxCell>
        <mxCell id="Sz5I-C2nNWflKFqn1XSB-30" style="edgeStyle=orthogonalEdgeStyle;rounded=0;orthogonalLoop=1;jettySize=auto;html=1;" edge="1" parent="WIyWlLk6GJQsqaUBKTNV-1" source="Sz5I-C2nNWflKFqn1XSB-27">
          <mxGeometry relative="1" as="geometry">
            <mxPoint x="-3060" y="-600" as="targetPoint" />
            <Array as="points">
              <mxPoint x="-3180" y="-347" />
              <mxPoint x="-3180" y="-600" />
            </Array>
          </mxGeometry>
        </mxCell>
        <mxCell id="Sz5I-C2nNWflKFqn1XSB-27" value="&lt;font style=&quot;font-size: 11.29px;&quot;&gt;rotation equals right&lt;br&gt;Display Right on L2&lt;br&gt;&lt;/font&gt;" style="rounded=0;whiteSpace=wrap;html=1;fontSize=16;fillColor=#d5e8d4;strokeColor=#82b366;" vertex="1" parent="WIyWlLk6GJQsqaUBKTNV-1">
          <mxGeometry x="-3140" y="-370" width="160" height="46" as="geometry" />
        </mxCell>
        <mxCell id="Sz5I-C2nNWflKFqn1XSB-33" style="edgeStyle=orthogonalEdgeStyle;rounded=0;orthogonalLoop=1;jettySize=auto;html=1;entryX=0.5;entryY=1;entryDx=0;entryDy=0;entryPerimeter=0;" edge="1" parent="WIyWlLk6GJQsqaUBKTNV-1" source="Sz5I-C2nNWflKFqn1XSB-31" target="Sz5I-C2nNWflKFqn1XSB-32">
          <mxGeometry relative="1" as="geometry">
            <Array as="points">
              <mxPoint x="-2570" y="-904" />
            </Array>
          </mxGeometry>
        </mxCell>
        <mxCell id="Sz5I-C2nNWflKFqn1XSB-31" value="&lt;font style=&quot;font-size: 11.29px;&quot;&gt;start delay 2 seconds&lt;br&gt;&lt;/font&gt;" style="rounded=0;whiteSpace=wrap;html=1;fontSize=16;fillColor=#d5e8d4;strokeColor=#82b366;" vertex="1" parent="WIyWlLk6GJQsqaUBKTNV-1">
          <mxGeometry x="-2770" y="-927.5" width="160" height="46" as="geometry" />
        </mxCell>
        <UserObject label="&lt;div style=&quot;&quot;&gt;&lt;font style=&quot;direction: ltr; letter-spacing: 0px; line-height: 120%; opacity: 1; font-size: 11.29px;&quot;&gt;end&lt;/font&gt;&lt;/div&gt;" Function="EN_DIO_Error_T DIO_init(uint8_t pinNumber, EN_DIO_PORT_T portNumber, EN_DIO_DIRECTION_T direction);" tags="Flowchart" id="Sz5I-C2nNWflKFqn1XSB-32">
          <mxCell style="verticalAlign=middle;align=center;overflow=width;vsdxID=30;fillColor=#dae8fc;shape=stencil(tVLREoIgEPwaHnEQxsl3s/9gEpSJwDko7e+DsEkze2l627vdu5uFRaxyHe8FosR5sCcxqMZ3iO0Rpcp0ApQPCLEasUpaEC3Yi2lS3fOojOhsr3HDmObyMtsVcYqS29Qh5FEfklwrM5OXeUa/yjkcAwfr7TDpiyTfXvjkMR+Vw2A998qaBac5tAKHU1hq3i4oNwjRr9ofvayt/+Rk+yX/4iWA159KpXWKxJx/z0Bopfyw+g4=);strokeColor=#6c8ebf;spacingTop=-1;spacingBottom=-1;spacingLeft=-1;spacingRight=-1;points=[[0.5,1,0],[0.5,0,0],[0,0.5,0],[1,0.5,0]];labelBackgroundColor=none;rounded=1;html=1;whiteSpace=wrap;fontFamily=Calibri;" vertex="1" parent="WIyWlLk6GJQsqaUBKTNV-1">
            <mxGeometry x="-2620" y="-1092" width="101" height="38" as="geometry" />
          </mxCell>
        </UserObject>
      </root>
    </mxGraphModel>
  </diagram>
</mxfile>
